<?xml version="1.0" encoding="UTF-8"?>
<svg xmlns="http://www.w3.org/2000/svg" xmlns:xlink="http://www.w3.org/1999/xlink"
  viewBox="0 0 292.94 291.38" height="600">
  <defs>
    <style>
      .cls-1 {
      mask: url(#mask);
      }

      .cls-2, .cls-3, .cls-4 {
      fill: #727272;
      }

      .cls-3, .cls-5, .cls-6, .cls-7, .cls-8 {
      opacity: .2;
      }

      .cls-9 {
      fill: #441703;
      stroke: #441703;
      stroke-linecap: round;
      stroke-linejoin: round;
      stroke-width: 2px;
      }

      .cls-10 {
      fill: #3f1503;
      }

      .cls-11 {
      isolation: isolate;
      }

      .cls-12 {
      mask: url(#mask-2);
      }

      .cls-13 {
      mask: url(#mask-3);
      }

      .cls-14 {
      mask: url(#mask-1);
      }

      .cls-15 {
      filter: url(#luminosity-invert-noclip);
      }

      .cls-5 {
      fill: url(#linear-gradient-2);
      }

      .cls-6 {
      fill: url(#linear-gradient-3);
      }

      .cls-7 {
      fill: url(#linear-gradient-4);
      }

      .cls-8 {
      fill: url(#linear-gradient);
      }

      .cls-16 {
      fill: #fff;
      }

      .cls-17 {
      fill: #ececf1;
      }

      .cls-18 {
      opacity: .07;
      }

      .cls-19 {
      fill: #ffdeae;
      }

      .cls-4 {
      mix-blend-mode: multiply;
      opacity: .1;
      }

      .cls-20 {
      opacity: .05;
      }

      .cls-20, .cls-21 {
      fill: #602203;
      }

      .cls-22 {
      clip-path: url(#clippath);
      }

      .cls-23 {
      filter: url(#luminosity-invert-noclip-3);
      }

      .cls-24 {
      filter: url(#luminosity-invert-noclip-4);
      }

      .cls-25 {
      filter: url(#luminosity-invert-noclip-2);
      }

      g#left {
      animation: move 8s infinite;
      animation-timing-function: cubic-bezier (0.42, 0,1,1)
      }

      @keyframes move {
      from{
      translate: -12px 0;
      }
      50%{
      translate: 4px 0;
      }
      to{
      translate: -12px 0;
      }
      }

      g#right {
      animation: moveright 8s infinite;
      animation-timing-function: cubic-bezier (0.42, 0,1,1)
      }

      @keyframes moveright {
      from{
      translate: -5.5px 0;
      }
      50%{
      translate: 0 0;
      }
      to{
      translate: -5.5px 0;
      }

      }


    </style>
    <clipPath id="clippath">
      <path class="cls-19"
        d="M282.38,209.52c-4.41,14.99-10.53,10.31-13.67,16.59-5.95,11.9-5.13,11.96-10.09,14.88-2.14,1.27-2.31,5.79-3.14,8.1-.51,1.44-1.15,8.44-7.49,13.34-6.71,5.19-7.84,6.07-16.32,6.18-26.89.33-23.47-2.81-54.9-7.94-24.69-4.03-24.87-18.1-25.14-27.12-1.65-55.56,25.36-44.1,25.36-66.59,0-10.13-13.18-21.31-22.83-35.1-8.82-10.12-14.65-24.37-14.65-36.12,0-20.7,10.64-41.13,29.98-48.5,15.04-5.73,40.97-6.5,50.19,4.49.03.02.04.04.05.06,6.78,7.14,8.94,17.3,25.5,18.87,5.44.52,10.73,1.12,12.57,6.78,2.86,8.82,10.29,19.41,12.24,27.12,4.8,19-3.42,36.45-4.3,47.3-.12,1.39,3.6,14.07,7.93,22.32,2.25,4.28,6.63,6.82,8.8,11.13,1.44,2.85,2.54,5.91,2.84,9.1.48,5.26-1.47,10.16-2.93,15.11Z" />
    </clipPath>
    <filter id="luminosity-invert-noclip" x="192.39" y="142.62" width="37.85" height="27.6"
      color-interpolation-filters="sRGB" filterUnits="userSpaceOnUse">
      <feColorMatrix result="cm" values="-1 0 0 0 1 0 -1 0 0 1 0 0 -1 0 1 0 0 0 1 0" />
      <feFlood flood-color="#fff" result="bg" />
      <feBlend in="cm" in2="bg" />
    </filter>
    <linearGradient id="linear-gradient" x1="210.07" y1="143.28" x2="214.59" y2="175.56"
      gradientUnits="userSpaceOnUse">
      <stop offset="0" stop-color="#fff" />
      <stop offset=".09" stop-color="#f7f7f7" />
      <stop offset=".22" stop-color="#e2e2e2" />
      <stop offset=".38" stop-color="silver" />
      <stop offset=".56" stop-color="#919191" />
      <stop offset=".75" stop-color="#555" />
      <stop offset=".97" stop-color="#0c0c0c" />
      <stop offset="1" stop-color="#000" />
    </linearGradient>
    <mask id="mask" x="192.39" y="142.62" width="37.85" height="27.6" maskUnits="userSpaceOnUse">
      <g class="cls-15">
        <path class="cls-8"
          d="M230.24,145.16c-.11,4.71-.84,12.5-2.88,15.99-5.85,10.03-16.75,9.92-21.99,8.16s-10.04-5.55-12.61-8.82,7.77,3.64,20.48-6.61c10.09-8.14,17.15-15.21,17-8.71Z" />
      </g>
    </mask>
    <filter id="luminosity-invert-noclip-2" x="194.2" y="124" width="37.85" height="28.27"
      color-interpolation-filters="sRGB" filterUnits="userSpaceOnUse">
      <feColorMatrix result="cm" values="-1 0 0 0 1 0 -1 0 0 1 0 0 -1 0 1 0 0 0 1 0" />
      <feFlood flood-color="#fff" result="bg" />
      <feBlend in="cm" in2="bg" />
    </filter>
    <linearGradient id="linear-gradient-2" x1="211.89" y1="270.8" x2="216.41" y2="303.08"
      gradientTransform="translate(0 422.4) scale(1 -1)" xlink:href="#linear-gradient" />
    <mask id="mask-1" x="194.2" y="124" width="37.85" height="28.27" maskUnits="userSpaceOnUse">
      <g class="cls-25">
        <path class="cls-5"
          d="M232.05,149.72c-.11-4.71-.84-12.5-2.88-15.99-5.85-10.03-16.75-9.92-21.99-8.16s-10.04,5.55-12.61,8.82,7.77-3.64,20.48,6.61c10.09,8.14,17.15,15.21,17,8.71Z" />
      </g>
    </mask>
    <filter id="luminosity-invert-noclip-3" x="248.24" y="125.23" width="21.65" height="19.85"
      color-interpolation-filters="sRGB" filterUnits="userSpaceOnUse">
      <feColorMatrix result="cm" values="-1 0 0 0 1 0 -1 0 0 1 0 0 -1 0 1 0 0 0 1 0" />
      <feFlood flood-color="#fff" result="bg" />
      <feBlend in="cm" in2="bg" />
    </filter>
    <linearGradient id="linear-gradient-3" x1="258.36" y1="279.16" x2="260.94" y2="297.62"
      gradientTransform="translate(0 422.4) scale(1 -1)" xlink:href="#linear-gradient" />
    <mask id="mask-2" x="248.24" y="125.23" width="21.65" height="19.85" maskUnits="userSpaceOnUse">
      <g class="cls-23">
        <path class="cls-6"
          d="M269.89,142.16c-.06-2.69-.48-7.15-1.64-9.14-3.35-5.74-9.58-5.68-12.58-4.67-3,1.01-5.74,3.17-7.21,5.05s4.44-2.08,11.72,3.78c5.77,4.66,9.81,8.7,9.72,4.98Z" />
      </g>
    </mask>
    <filter id="luminosity-invert-noclip-4" x="247.81" y="146.19" width="20.81" height="15.17"
      color-interpolation-filters="sRGB" filterUnits="userSpaceOnUse">
      <feColorMatrix result="cm" values="-1 0 0 0 1 0 -1 0 0 1 0 0 -1 0 1 0 0 0 1 0" />
      <feFlood flood-color="#fff" result="bg" />
      <feBlend in="cm" in2="bg" />
    </filter>
    <linearGradient id="linear-gradient-4" x1="257.53" y1="146.56" x2="260.02" y2="164.31"
      xlink:href="#linear-gradient" />
    <mask id="mask-3" x="247.81" y="146.19" width="20.81" height="15.17" maskUnits="userSpaceOnUse">
      <g class="cls-24">
        <path class="cls-7"
          d="M268.62,147.59c-.06,2.59-.46,6.87-1.58,8.79-3.22,5.51-9.21,5.45-12.09,4.48s-5.52-3.05-6.93-4.85,4.27,2,11.26-3.64c5.55-4.47,9.43-8.36,9.34-4.79Z" />
      </g>
    </mask>
  </defs>
  <g class="cls-11">
    <g id="Layer_2" data-name="Layer 2">
      <g id="Head">
        <path id="Outline" class="cls-17"
          d="M288.26,207.74c-.48,1.6-.49,4.76-.96,6.37-4.6,15.71-11,10.81-14.27,17.39-6.21,12.47-5.36,12.54-10.54,15.6-2.23,1.33-2.41,6.07-3.28,8.49-.45,1.27-.99,6.62-5.05,11.35-.01.14-.01.24-.01.32.52,8.6-4.22,5.45-8.55,12.02-4.89,7.4-13.05,11.98-21.91,12.09-28.08.35-44.01-5.8-76.83-11.16-25.77-4.22-71.52-14.16-80.12-18.03-30.85-13.87-58.71-46-64.23-75.81-6.99-37.69,1.38-91.53,15.88-122.04C32.89,33.83,70.23,6.53,101.44,2.38c31.14-4.15,51.49-2.14,79.04.47,11.19,1.06,26.3,7.02,36.8,11.07,14.99,5.79,23.52,18.51,39.14,27.73,12.15,7.16,16.01,1.61,18.92,15.28,2.47,11.61-14.68,16.32-14.68,16.32,0,0,.24.1.98,2.4,2.99,9.25,10.74,20.35,12.78,28.43,1.49,5.94,1.78,11.73,1.41,17.24-.35,14.43-4.02,28.08-2.34,36.09,1.77,8.42,5.92,17.77,8.91,23.78.88,1.77,2.09,3.35,3.57,4.67,2.55,2.27,6.24,5.69,6.79,8.37.81,3.95-1.32,11.42-4.5,13.51Z" />
        <path id="Head-2" data-name="Head" class="cls-21"
          d="M252.8,44.99c-14.96-8.78-23.12-20.92-37.48-26.44-10.05-3.86-24.52-9.55-35.24-10.56-26.37-2.49-45.86-4.41-75.69-.45S38.74,37.53,24.85,66.64c-13.89,29.1-21.9,80.46-15.21,116.42,5.29,28.44,31.97,59.09,61.52,72.32,8.24,3.69,52.04,13.17,76.73,17.2,31.43,5.13,46.69,10.99,73.58,10.66,8.47-.1,16.29-4.47,20.97-11.53,4.15-6.27,8.7-3.27,8.19-11.47-.09-1.52,2.63-12.17,3.06-13.64.49-1.67,1.57-3.08,2.58-4.5,4.17-5.87,6.83-9.84,12.22-17.58,4.01-5.76,9.04-.22,13.45-15.21,2.58-8.78,6.39-12.9-1.1-25.25-.79-1.3-9.04-16.04-11.69-28.61-2.24-10.65,5.46-31.77.66-50.77-1.95-7.71-12.48-24.51-16.43-29.1-3.89-4.53,19.75-6.3,17.53-15.99-2.98-13.01-6.48-7.75-18.12-14.59Z" />
        <g id="Face">
          <path class="cls-19"
            d="M282.38,209.52c-4.41,14.99-10.53,10.31-13.67,16.59-5.95,11.9-5.13,11.96-10.09,14.88-2.14,1.27-2.31,5.79-3.14,8.1-.51,1.44-1.15,8.44-7.49,13.34-6.71,5.19-7.84,6.07-16.32,6.18-26.89.33-23.47-2.81-54.9-7.94-24.69-4.03-24.87-18.1-25.14-27.12-1.65-55.56,25.36-44.1,25.36-66.59,0-10.13-13.18-21.31-22.83-35.1-8.82-10.12-14.65-24.37-14.65-36.12,0-20.7,10.64-41.13,29.98-48.5,15.04-5.73,40.97-6.5,50.19,4.49.03.02.04.04.05.06,6.78,7.14,8.94,17.3,25.5,18.87,5.44.52,10.73,1.12,12.57,6.78,2.86,8.82,10.29,19.41,12.24,27.12,4.8,19-3.42,36.45-4.3,47.3-.12,1.39,3.6,14.07,7.93,22.32,2.25,4.28,6.63,6.82,8.8,11.13,1.44,2.85,2.54,5.91,2.84,9.1.48,5.26-1.47,10.16-2.93,15.11Z" />
          <g class="cls-22">
            <g class="cls-18">
              <path class="cls-2"
                d="M265.18,235.97c-4.58.89-10.85,5.58-13.92,6.46-5.03,1.44,0,11.42-12.08,14.93-18.93,5.51-41.36-2.99-55.12-4.39-22.38-2.28-33.77-20.25-11.49-62.64,2.46-4.68,13.46-12.58,12.9-20.17-.98-13.33-10.89-30.06-20.06-39.03-8.82-10.12-19.9-23.64-19.9-35.39,0-20.7,10.64-41.13,29.98-48.5,15.04-5.73,40.97-6.5,50.19,4.49.03.02.04.04.05.06,6.78,7.14,8.94,17.3,25.5,18.87,2.25.21,2.18-.32,4.14.28,1.77.54,3.6-2.23,5.29-2.98,5.73-2.55,9.06-2.92,7.61-9.26-2.98-13.01-2.91-3.42-14.55-10.25-14.96-8.78-25.66-16.64-40.02-22.16-10.05-3.86-16.73-13.54-27.45-14.55-26.37-2.49-47.9-3.96-77.72,0-29.89,3.97-63.78,25.8-77.68,54.9-13.89,29.1-21.9,80.46-15.21,116.42,5.29,28.44,31.97,59.09,61.52,72.32,8.24,3.69,52.04,13.17,76.73,17.2,31.27,5.1,46.53,10.93,73.17,10.66,3.59-.04,19.98-10.25,23.57-15.84,4.95-7.68,17.29-31.95,14.55-31.42Z" />
            </g>
            <path class="cls-20"
              d="M217.48,52.17c1.6,2.47,5.36,7.03,5.99,9.9.47,2.13,4.44,5.35,6.5,6.34,7.25,3.47,15.37,6.62,17.98,8.71,1.77,1.41,3.36,3.76,4.51,5.76,1.78,3.08,4.04,4.69,5.23,4.69,2.1,0-.59-6.98-2.14-10.46-3.8-8.55-8.79-8.32-8.79-8.32l-33.74-23.52,4.46,6.89Z" />
          </g>
        </g>
        <path id="Mouth_2" data-name="Mouth 2" class="cls-9"
          d="M263.01,236.4l-40.43,2.02-22.61.78c-1.06.04-1.85,1.15-1.38,2.11.1.2.24.35.45.42.96.32,61.62-3.9,62.51-4.05,1.18-.2,1.86-1.25,1.86-1.25l-.4-.03Z" />
        <g class="cls-1">
          <path class="cls-4"
            d="M230.24,145.16c-.11,4.71-.84,12.5-2.88,15.99-5.85,10.03-16.75,9.92-21.99,8.16s-8.69-7.01-10-11.09c-.98-3.06,5.16,5.9,17.87-4.35,10.09-8.14,17.15-15.21,17-8.71Z" />
        </g>
        <g class="cls-14">
          <path class="cls-4"
            d="M230.18,149c-.11-4.71,1.08-9.12-1-15.26-1.53-8.23-12.95-12.65-21.84-7.58-3.84,2.2-8.85,6.43-10.16,10.5-.98,3.06,5.16-5.9,17.87,4.35,10.09,8.14,15.28,14.49,15.12,7.99Z" />
        </g>
        <path class="cls-16"
          d="M231.11,148.11c-.66,9.92-7.91,18.3-21.06,18.52s-15.1-13.01-14.33-19.95c1.55-13.98,12.46-21.94,21.5-21.5,13.23.65,14.62,11.92,13.89,22.93Z" />
        <g class="cls-12">
          <path class="cls-4"
            d="M267.1,141.91c.6-6.84,3.6-18.82-7.01-16.36-1.02.24-.35,2.42-1.63,2.94-2.35.95,3.63.22,2.88,2.55-.56,1.75-8.44.27-1.17,6.14,5.77,4.66,6.27,12.23,6.93,4.73Z" />
        </g>
        <path class="cls-16"
          d="M267.66,145.02c0,9.74-.88,12.73-6.61,15.05-8.13,3.28-10.86-9.05-10.86-18.8s3.91-15.19,12.68-15.43c5.95-.17,4.8,9.44,4.8,19.18Z" />
        <g class="cls-13">
          <path class="cls-4"
            d="M268.62,147.59c-.06,2.59-.46,6.87-1.58,8.79-3.22,5.51-9.21,5.45-12.09,4.48s-4.78-3.86-5.5-6.09c-.54-1.68,2.84,3.25,9.82-2.39,5.55-4.47,9.43-8.36,9.34-4.79Z" />
        </g>
        <path class="cls-3"
          d="M276.92,201.08c1.46-4.95,8.58-1.52,8.1-6.78-.3-3.19-2.03-4.59-3.47-7.44-2.17-4.31-6.51-11.43-8.76-15.71-4.33-8.25-20.99-15.54-16.02-38.7.8-2.73,1.93-5.75,3-6.66s1.98-1.7,1.98-2.23-2.2-.18-3.08.92c-2.13,2.63-15.13,22.02-15.13,22.02l9.59,25.63-2.32,33.73,8.75,2.65,17.36-7.44Z" />
        <path class="cls-19"
          d="M282.38,209.52c1.46-4.95,3.41-9.85,2.93-15.11-.3-3.19-1.4-6.25-2.84-9.1-2.17-4.31-6.55-6.85-8.8-11.13-4.33-8.25-23.86-18.57-18.9-41.72,1.98-6.78,5.29-12.9,5.29-12.9l-18.52,26.95,9.59,25.63-2.32,33.73,9.76,11.41,23.81-7.77Z" />
        <path class="cls-3"
          d="M258.11,192.11s-8.6,5.95-3.31,16.98c3.97,8.27,6.46,7.13,7.81,6.76,9.88-2.74,9.89-4.42,17.49-7.92,4.73-2.18,9.2-7.86,6.83-13.28-.88-2.02-3.52-3.73-5.34-4.75-1.57-.88-3.69-1.7-5.5-1.99-2.24-.36-4.25-.08-6.62.11-6.1.49-11.36,4.08-11.36,4.08Z" />
        <path id="Nose" class="cls-10"
          d="M260,190.11s-8.6,5.95-3.31,16.98c3.97,8.27,6.46,7.13,7.81,6.76,9.88-2.74,9.89-4.42,17.49-7.92,4.73-2.18,9.2-7.86,6.83-13.28-.88-2.02-3.52-3.73-5.34-4.75-1.57-.88-3.69-1.7-5.5-1.99-2.24-.36-4.25-.08-6.62.11-6.1.49-11.36,4.08-11.36,4.08Z" />
        <path id="Dimple_2" data-name="Dimple 2" class="cls-10"
          d="M195.31,241.61c-1.21-1.74-.23-4.13,1.66-5.65.45-.36.99-.57,1.56-.63.43-.04,1.3.24,1.1-.48-.03-.09-.07-.19-.14-.26-.4-.44-1.75-.08-2.25.09-.88.28-1.42.96-1.95,1.74-1.23,1.83-2.07,4.66-.34,5.89.43.31.67-.25.36-.7Z" />
      </g>
      <g id="right">
        <path
          d="M268.41,144.07c-.43,5.84-1.3,10.79-4.27,10.57-2.97-.22-3.34-5.3-2.91-11.14.43-5.84,1.49-10.21,4.47-10s3.15,4.73,2.72,10.56Z" />
      </g>
      <g id="left">
        <path
          d="M227.91,149.28c-.59,8.02-5.39,10.93-7.45,11.8-3.72,1.57-5.7-5.54-5.23-11.33.66-8.02,3.01-10.46,6.49-11.17,5.08-1.04,6.77,2.67,6.18,10.69Z" />
      </g>
    </g>
  </g>
</svg>