<?xml version="1.0" encoding="UTF-8"?>
<svg id="Layer_2" data-name="Layer 2" xmlns="http://www.w3.org/2000/svg" xmlns:xlink="http://www.w3.org/1999/xlink" viewBox="0 0 143.88 369.39">
  <defs>
    <style>
      .cls-1 {
        fill: #ffd400;
      }

      .cls-2 {
        fill: #edb6ef;
      }

      .cls-3 {
        fill: #ccc;
      }

      .cls-4 {
        fill: #ececf1;
      }

      .cls-5 {
        fill: #c39d00;
      }

      .cls-6 {
        opacity: .1;
      }

      .cls-7 {
        opacity: .05;
      }

      .cls-8 {
        fill: #3d3d3f;
      }

      .cls-9 {
        fill: #e2b7a3;
      }

      .cls-10 {
        fill: #e1b800;
      }

      .cls-11 {
        clip-path: url(#clippath);
      }
    </style>
    <clipPath id="clippath">
      <path class="cls-9" d="M138.73,277.37c.29.47-21.72,64.37-27.97,82.49-.71,2.05-3.4,2.51-4.75.81-11.89-15.03-53.8-68.05-53.67-68.61-1.06-1.73-1.83-3.71-2.2-5.86-1.47-8.63,4.04-16.78,12.31-18.19,6.33-1.08,12.43,2.11,15.62,7.52.34.59,1.23.43,1.36-.23,1.21-6.16,5.92-11.18,12.24-12.26,6.47-1.1,12.73,2.26,15.84,7.92.34.62,1.27.43,1.39-.27,1.16-6.86,6.64-12.4,13.9-12.86,7.29-.46,14.07,4.76,15.84,12.17.61,2.54.59,5.04.09,7.37Z"/>
    </clipPath>
  </defs>
  <g id="pencil">
    <path id="sticker_outline" data-name="sticker outline" class="cls-4" d="M101.16,22.89s-.69-4.07-.71-4.06l-.02-.11-.24-1.4-2.24-13.16c-.46-2.73-3.22-4.56-6.12-4.07L4.49,14.95C1.59,15.44-.4,18.08.07,20.81l2.24,13.16.24,1.4s.02.11.01.11c0,0,.88,5.15.86,5.15,0,0,11.92,70.03,11.92,70.03.41,2.43.83,4.87,1.24,7.3,1.09,6.44,2.18,12.89,3.28,19.33,1.56,9.17,3.11,18.35,4.67,27.52,1.8,10.63,3.6,21.25,5.4,31.88s3.66,21.6,5.49,32.4c1.64,9.69,3.29,19.38,4.93,29.07l3.72,21.92c1.34,7.93,2.38,15.36,7.74,21.69,2.79,3.3,5.45,6.71,8.2,10.04,7.84,9.55,15.73,19.06,23.62,28.56,7.04,8.47,14.08,16.94,21.13,25.4.7.85,1.41,1.69,2.11,2.54,1.47,1.76,4.43,1.25,5.24-.89,3.48-9.32,11.29-30.23,18.29-49.12,0,0,12.15-34.37,13.23-40.64.94-5.49-.89-10.99-1.83-16.5-.52-3.07-1.05-6.14-1.57-9.21-1.34-7.87-2.68-15.74-4.03-23.62-1.64-9.61-3.28-19.22-4.92-28.83-1.82-10.67-3.64-21.34-5.46-32.01s-3.77-22.09-5.65-33.14c-1.83-10.74-3.66-21.48-5.49-32.22-1.66-9.76-3.33-19.51-4.99-29.27-1.38-8.09-2.76-16.18-4.14-24.26-.98-5.74-1.96-11.48-2.94-17.22-.46-2.71-.92-5.42-1.39-8.13-.02-.12-.05-.25-.06-.37Z"/>
    <g id="rubber">
      <rect class="cls-2" x="6.39" y="13.35" width="90" height="23.91" rx="4.85" ry="4.85" transform="translate(-3.52 8.98) rotate(-9.66)"/>
    </g>
    <g id="rubber_shadow" data-name="rubber shadow" class="cls-6">
      <rect x="7.65" y="30.93" width="90" height="3.6" transform="translate(-4.75 9.3) rotate(-9.66)"/>
    </g>
    <g id="body_yellow" data-name="body yellow">
      <path class="cls-1" d="M80.71,284.17l-27.15,4.66c-1.66.28-3.23-.81-3.51-2.45L8.89,43.63l30.01-5.11,41.81,245.65Z"/>
      <rect class="cls-10" x="59.24" y="34.3" width="30.03" height="249.18" transform="translate(-25.6 14.71) rotate(-9.66)"/>
      <path class="cls-5" d="M88.81,29.27h29.9v246.18c0,1.65-1.34,3-3,3h-26.91V29.27h0Z" transform="translate(-24.34 19.59) rotate(-9.66)"/>
    </g>
    <g id="metal_shadow" data-name="metal shadow" class="cls-6">
      <rect x="11" y="50.61" width="90.06" height="3.6" transform="translate(-8 10.14) rotate(-9.66)"/>
    </g>
    <g id="metal">
      <rect class="cls-3" x="9.34" y="32.27" width="90.02" height="20.77" transform="translate(-6.39 9.72) rotate(-9.66)"/>
    </g>
    <g id="metal_lines" data-name="metal lines">
      <g id="metal_line_3" data-name="metal line 3" class="cls-7">
        <rect x="11.1" y="46.13" width="88.28" height="2.5" rx="1.25" ry="1.25" transform="translate(-7.17 9.94) rotate(-9.66)"/>
      </g>
      <g id="metal_line_2" data-name="metal line 2" class="cls-7">
        <rect x="10.21" y="40.86" width="88.28" height="2.5" rx="1.25" ry="1.25" transform="translate(-6.29 9.72) rotate(-9.66)"/>
      </g>
      <g id="metal_line_1" data-name="metal line 1" class="cls-7">
        <rect x="9.32" y="35.65" width="88.28" height="2.5" rx="1.25" ry="1.25" transform="translate(-5.43 9.49) rotate(-9.66)"/>
      </g>
    </g>
    <g id="nib">
      <path class="cls-9" d="M138.73,277.37c.29.47-21.72,64.37-27.97,82.49-.71,2.05-3.4,2.51-4.75.81-11.89-15.03-53.8-68.05-53.67-68.61-1.06-1.73-1.83-3.71-2.2-5.86-1.47-8.63,4.04-16.78,12.31-18.19,6.33-1.08,12.43,2.11,15.62,7.52.34.59,1.23.43,1.36-.23,1.21-6.16,5.92-11.18,12.24-12.26,6.47-1.1,12.73,2.26,15.84,7.92.34.62,1.27.43,1.39-.27,1.16-6.86,6.64-12.4,13.9-12.86,7.29-.46,14.07,4.76,15.84,12.17.61,2.54.59,5.04.09,7.37Z"/>
      <g class="cls-11">
        <g id="nib_shadow_clip_path" data-name="nib shadow clip path" class="cls-6">
          <path id="nib_shadow" data-name="nib shadow" d="M9.16,43.84l41.74,245.25c-1.47-8.63,3.46-17.99,11.73-19.4,5.66-.96,11.6,2.45,15.07,7.05.83,1.1,2.58.77,2.98-.54,1.66-5.46,5.7-10.55,11.34-11.51s11.91,2.7,15.3,7.63c.74,1.08,2.37.81,2.7-.45,1.62-6.23,6.29-11.9,12.94-12.32,6.33-.4,12.47,3.66,14.55,9.7,1.08,3.13.96,4.96-.64,9.69-1.35,3.98-23.05,69.74-23.65,69.95l1.16.44,12.18-35.55,3.36-9.09,4.98-15.2,3.47-10.75c.34-.99.67-2.48.7-3.13.04-.5.03-1.09,0-3.76-.08-.45-41.19-243.1-41.19-243.1L9.16,43.84Z"/>
        </g>
      </g>
    </g>
    <path id="lead_fill" data-name="lead fill" class="cls-8" d="M108.7,361.73c-1.91.29-3.66-2.19-5.54-4.6s-4.37-5.13-4.24-5.4c1.42-3.01,3.46-5.75,6.84-6.33s6.52,1.13,8.61,3.88c.17.23-1.5,3.78-2.25,6.8-.71,2.84-1.56,5.36-3.41,5.64Z"/>
  </g>
</svg>