<svg xmlns="http://www.w3.org/2000/svg" id="Layer_2" data-name="Layer 2" viewBox="0 0 143.88 369.39"><defs><clipPath id="clippath"><path d="M138.73 277.37c.29.47-21.72 64.37-27.97 82.49-.71 2.05-3.4 2.51-4.75.81-11.89-15.03-53.8-68.05-53.67-68.61a16.6 16.6 0 0 1-2.2-5.86c-1.47-8.63 4.04-16.78 12.31-18.19 6.33-1.08 12.43 2.11 15.62 7.52.34.59 1.23.43 1.36-.23 1.21-6.16 5.92-11.18 12.24-12.26 6.47-1.1 12.73 2.26 15.84 7.92.34.62 1.27.43 1.39-.27 1.16-6.86 6.64-12.4 13.9-12.86 7.29-.46 14.07 4.76 15.84 12.17.61 2.54.59 5.04.09 7.37" class="cls-9"/></clipPath><style>.cls-6{opacity:.1}.cls-7{opacity:.05}.cls-9{fill:#e2b7a3}</style></defs><g id="pencil"><path id="sticker_outline" d="M101.16 22.89s-.69-4.07-.71-4.06l-.02-.11-.24-1.4-2.24-13.16C97.49 1.43 94.73-.4 91.83.09L4.49 14.95c-2.9.49-4.89 3.13-4.42 5.86l2.24 13.16.24 1.4s.02.11.01.11c0 0 .88 5.15.86 5.15l11.92 70.03c.41 2.43.83 4.87 1.24 7.3 1.09 6.44 2.18 12.89 3.28 19.33 1.56 9.17 3.11 18.35 4.67 27.52l5.4 31.88c1.8 10.63 3.66 21.6 5.49 32.4 1.64 9.69 3.29 19.38 4.93 29.07l3.72 21.92c1.34 7.93 2.38 15.36 7.74 21.69 2.79 3.3 5.45 6.71 8.2 10.04 7.84 9.55 15.73 19.06 23.62 28.56 7.04 8.47 14.08 16.94 21.13 25.4.7.85 1.41 1.69 2.11 2.54 1.47 1.76 4.43 1.25 5.24-.89 3.48-9.32 11.29-30.23 18.29-49.12 0 0 12.15-34.37 13.23-40.64.94-5.49-.89-10.99-1.83-16.5-.52-3.07-1.05-6.14-1.57-9.21-1.34-7.87-2.68-15.74-4.03-23.62l-4.92-28.83-5.46-32.01c-1.82-10.67-3.77-22.09-5.65-33.14l-5.49-32.22c-1.66-9.76-3.33-19.51-4.99-29.27-1.38-8.09-2.76-16.18-4.14-24.26l-2.94-17.22c-.46-2.71-.92-5.42-1.39-8.13-.02-.12-.05-.25-.06-.37Z" data-name="sticker outline" style="fill:#ececf1"/><rect id="rubber" width="90" height="23.91" x="6.39" y="13.35" rx="4.85" ry="4.85" style="fill:#edb6ef" transform="rotate(-9.66 51.376 25.318)"/><path id="rubber_shadow" d="M7.65 30.93h90v3.6h-90z" class="cls-6" data-name="rubber shadow" transform="rotate(-9.66 52.655 32.757)"/><g id="body_yellow" data-name="body yellow"><path d="m80.71 284.17-27.15 4.66c-1.66.28-3.23-.81-3.51-2.45L8.89 43.63l30.01-5.11z" style="fill:#ffd400"/><path d="M59.24 34.3h30.03v249.18H59.24z" style="fill:#e1b800" transform="rotate(-9.66 74.242 158.835)"/><path d="M88.81 29.27h29.9v246.18c0 1.65-1.34 3-3 3H88.8V29.27Z" style="fill:#c39d00" transform="rotate(-9.66 103.748 153.82)"/></g><path id="metal_shadow" d="M11 50.61h90.06v3.6H11z" class="cls-6" data-name="metal shadow" transform="rotate(-9.66 56 52.407)"/><path id="metal" d="M9.34 32.27h90.02v20.77H9.34z" style="fill:#ccc" transform="rotate(-9.66 54.32 42.67)"/><g id="metal_lines" data-name="metal lines"><rect id="metal_line_3" width="88.28" height="2.5" x="11.1" y="46.13" class="cls-7" data-name="metal line 3" rx="1.25" ry="1.25" transform="rotate(-9.66 55.232 47.396)"/><rect id="metal_line_2" width="88.28" height="2.5" x="10.21" y="40.86" class="cls-7" data-name="metal line 2" rx="1.25" ry="1.25" transform="rotate(-9.66 54.37 42.08)"/><rect id="metal_line_1" width="88.28" height="2.5" x="9.32" y="35.65" class="cls-7" data-name="metal line 1" rx="1.25" ry="1.25" transform="rotate(-9.66 53.44 36.875)"/></g><g id="nib"><path d="M138.73 277.37c.29.47-21.72 64.37-27.97 82.49-.71 2.05-3.4 2.51-4.75.81-11.89-15.03-53.8-68.05-53.67-68.61a16.6 16.6 0 0 1-2.2-5.86c-1.47-8.63 4.04-16.78 12.31-18.19 6.33-1.08 12.43 2.11 15.62 7.52.34.59 1.23.43 1.36-.23 1.21-6.16 5.92-11.18 12.24-12.26 6.47-1.1 12.73 2.26 15.84 7.92.34.62 1.27.43 1.39-.27 1.16-6.86 6.64-12.4 13.9-12.86 7.29-.46 14.07 4.76 15.84 12.17.61 2.54.59 5.04.09 7.37" class="cls-9"/><g style="clip-path:url(#clippath)"><g id="nib_shadow_clip_path" class="cls-6" data-name="nib shadow clip path"><path id="nib_shadow" d="M9.16 43.84 50.9 289.09c-1.47-8.63 3.46-17.99 11.73-19.4 5.66-.96 11.6 2.45 15.07 7.05.83 1.1 2.58.77 2.98-.54 1.66-5.46 5.7-10.55 11.34-11.51s11.91 2.7 15.3 7.63c.74 1.08 2.37.81 2.7-.45 1.62-6.23 6.29-11.9 12.94-12.32 6.33-.4 12.47 3.66 14.55 9.7 1.08 3.13.96 4.96-.64 9.69-1.35 3.98-23.05 69.74-23.65 69.95l1.16.44 12.18-35.55 3.36-9.09 4.98-15.2 3.47-10.75c.34-.99.67-2.48.7-3.13.04-.5.03-1.09 0-3.76-.08-.45-41.19-243.1-41.19-243.1z" data-name="nib shadow"/></g></g></g><path id="lead_fill" d="M108.7 361.73c-1.91.29-3.66-2.19-5.54-4.6s-4.37-5.13-4.24-5.4c1.42-3.01 3.46-5.75 6.84-6.33s6.52 1.13 8.61 3.88c.17.23-1.5 3.78-2.25 6.8-.71 2.84-1.56 5.36-3.41 5.64Z" data-name="lead fill" style="fill:#3d3d3f"/></g></svg>