<?xml version="1.0" encoding="UTF-8"?>
<svg id="Layer_2" data-name="Layer 2" xmlns="http://www.w3.org/2000/svg" viewBox="0 0 172.16 61.81">
  <defs>
    <style>
      .cls-1 {
        fill: #fff;
      }
    </style>
  </defs>
  <g id="Scribble">
    <g id="scribble_path" data-name="scribble path">
      <g>
        <path class="cls-1" d="M172.16,1.72c-.03-.21-.34-.45-.54-.17l.27.65.27-.48Z"/>
        <path class="cls-1" d="M169.64,2.3c-.08.5-.05,1.23.54,1.51-.13-.74.12-.6-.07-1.45.2-.28.58-.23.7-.01-.02-.2.49-.24.35-.67-.67-.09-1.1.26-1.25.96-.19-.03-.21-.24-.27-.35Z"/>
        <path class="cls-1" d="M142.58,20.49l.22-.04c-.07,0-.15,0-.22.04Z"/>
        <path class="cls-1" d="M124.7,29.85c.13-.08.16-.17.14-.23-.11.1-.19.19-.14.23Z"/>
        <path class="cls-1" d="M121.29,30.74c.07-.02.14-.03.2-.05-.1-.02-.18-.02-.2.05Z"/>
        <path class="cls-1" d="M142.58,20.49l-.57.1c.08.21.32,0,.57-.1Z"/>
        <path class="cls-1" d="M167.24,6.47c.07-.1.1-.21.12-.32-.05.08-.11.16-.17.23.02.03.03.06.05.09Z"/>
        <path class="cls-1" d="M149.84,15.34l.14-.09c0-.09-.01-.19-.03-.3l-.1.39Z"/>
        <path class="cls-1" d="M155.4,11.43c-.14.07.14.56.24.79-.06-.24-.03-.4.05-.51-.06-.09-.15-.18-.29-.28Z"/>
        <path class="cls-1" d="M164.6,5.69l.1-.18c-.02.05-.07.12-.1.18Z"/>
        <path class="cls-1" d="M145.67,17.86c-.05-.06-.11-.11-.16-.14.04.06.09.1.16.14Z"/>
        <path class="cls-1" d="M8.5,56.12s-.04-.05-.06-.08c0,.07.02.11.06.08Z"/>
        <path class="cls-1" d="M.54,58.76l.07-.09c-.06-.09-.11-.18-.18-.26l.11.35Z"/>
        <path class="cls-1" d="M115.31,32.87s.02,0,.03,0c.12-.13.04-.08-.03,0Z"/>
        <path class="cls-1" d="M62.36,55.31c.75.33-.87.88.21,1.19-.14-.19.65-1.06-.21-1.19Z"/>
        <path class="cls-1" d="M167.05,6.53c-.07.06-.14.13-.22.18.11-.07.18-.12.22-.18Z"/>
        <path class="cls-1" d="M62.56,56.5h0s.11.03.11.03c-.05-.01-.07-.02-.11-.03Z"/>
        <path class="cls-1" d="M102.3,39.39c.07.08.15.12.24.16-.03-.05-.09-.1-.24-.16Z"/>
        <path class="cls-1" d="M112.46,35.5l-.27.05c.12,0,.2-.02.27-.05Z"/>
        <path class="cls-1" d="M97.52,42.48c-.15.02-.23-.03-.38.13.03.02.05.03.08.04.03-.1.11-.17.29-.16Z"/>
        <path class="cls-1" d="M92.2,44.94s.1.04.15.06c.05-.03.11-.07.16-.1l-.3.05Z"/>
        <path class="cls-1" d="M22.73,45.53c-.2-.06-.36-.16-.51-.26.3.28-.33.88.51.26Z"/>
        <path class="cls-1" d="M167.03,6.23c.06.13.07.22.02.3.05-.05.09-.1.13-.15-.04-.08-.09-.14-.15-.15Z"/>
        <path class="cls-1" d="M99.17,46.61l-.88.32c.26-.06.58-.18.88-.32Z"/>
        <path class="cls-1" d="M40.5,42.1v-.22c-.03.07-.04.14,0,.22Z"/>
        <path class="cls-1" d="M95.8,48.16c-.23-.11-.44-.14-.64-.13-.02.06-.04.11-.04.18l.68-.04Z"/>
        <path class="cls-1" d="M22.21,45.26h0s0,0,0,0Z"/>
        <path class="cls-1" d="M17.97,49.85c.73-.5-.08-.83-.17-1.28.74-.78.71.16,1.22.27.42-.54.45-1.38.87-1.64.1.08.2.06.2.25.24-.88,1.68-1.2,1.93-2.27.09.02.15.05.19.09-.32-.23-.55-.53-.68-.77.32-.23.35-.8.74-.49-.21.13-.12.3-.12.49l.23-.41c.7.36-.33.52-.04.94.54-.64,1-1.65,1.62-1.84.49.49-1.07,1.01-.05,1.04l-.94.33c1.21.47-.52.27.68.83,1.15-.55.97-1.08,2.13-1.62.03-.47-.39-.41-.36-.88,1.11-1.57,2.12.64,2.72-.84.03-.57-.33-1.36.71-1.49l.15.82c1.06-.61-.02-1.31,1.34-1.57-.03.38-.67.74-.46.71,1.03.06.25-.69.79-1.03l.48.5c1.03-.8,1.98-1.99,3.13-2.86.04.21-.05.52.34.52,1.35-1.25,3.35-2.01,5.02-2.55l.25-.83c.13-.07.37.09.29.27.67-.12-.16-.34,0-.69.3-.22.58.06.47.33.18-.24.42-.52.69-.78.06-.06.16-.14.19-.19.02-.04.05-.08.08-.12.06-.08.13-.16.21-.22.32-.28.8-.41.86-.06l-.17.24c.08.11.33-.27.67-.63.32-.35.73-.66.68-.31l-.2.14c.09.03.18.06.27.08h.07s-.01.07-.02.1l-.04.17c-.08.39-.12.76-.26,1.14-.14.38-.36.72-.76.89.74.52-.92,1.9.17,2.36-.91.99-1,.6-1.9,2.08-.19.41.48.87.41,1.44l-.59-.19.35.93-.83.13-.03.54c.11-.18.41-.32.57-.23-.02.87-1.12,1.71-1.42,1.61-.07.66-.16,1.32-.26,1.98-.21-.14-.16-.47-.21-.76.18,1.19-.66-.08-.51,1.01.18-.06.31.21.41.28-.53.28-.97,1.25-1.17,2.04l-.32-.32c-.35.62-.63,1.29-.96,2.13-.31.84-.64,1.79-.89,2.93.38-.76,1.04-.34.98.24-.23.04-.46.08-.69.13.33.47.35-.61.7.29-.16.77-.8.51-.96-.05.03.37.07.75.16,1.12-.19.07-.3-.2-.54-.28.19.25.04.76,0,1.36-.03.6.1,1.25.56,1.47l-.15.14c.59,1.34,1.37,2.06,2.06,2.59.71.51,1.38.85,2.21,1.22.27-.49.84-.11,1.44-.39,1.04.54,2.22,1.23,3.6,1.3.94-.21.3-.46.73-.76.03.51,1.28.53.62.87,1.51-.02,1.94-.04,3.82-.49-.21-.2-.44-.29-.33-.47.34-.08.78.18.74.43l-.09.06c1.04-.43,2.26-.13,3.46.08,1.19.22,2.36.36,3.11-.3l-.09.07c.55-.27,1.09-.54,1.62-.83.8-.05-.4.46.23.67,1.68-1.17,2.93-.45,4.3-1.37,1.53,1.2,4.04-1.16,5.83-.71l-.19-.31c.29-.45.54.05.85.03-.12-.25-.52-.17-.33-.43,3.19-1.44,6.97-1.77,10.41-2.77,1.25-.38.01-1.98,1.84-1.79l-.18.79c2.13-1.7,4.96-2.01,7.03-3.65-.08.2,0,.38-.23.48.69.22,1.83-.78,1.68-1.14.38-.12.23.29.53.37.61.04.99-1.11,1.44-.79.08.05-.07.2-.15.28.23-.35,1.52-.62.98-.99.98-.15,1.56-.98,2.39-1,.19-.77,1.61-.41,1.38-1.27.32.85,1.82-.04,2.19-.68-.07.33.59.04.54.48.62-.3,1.12-.72.81-1.09,1.6.45,1.93-1.86,3.16-.9,1.64-1.3,3.21-2.39,4.78-3.36.32.84-1.8.94-1.32,1.76,1.42-1.07,2-2.2,3.65-2.73.46-.08-.06.46-.13.66,1.41-1.08,3.07-1.37,4.26-2.47.03.08-.08.23-.19.36.26-.16.7-.18.49-.54l-.22.23c-.7-.33.56-1.64.47-1.95.04,1.28,1.5-.4,1.41,1.3.15-.16.29-.44.13-.67.3-.06.46.05.32.46.89-.68.35-.9,1.24-1.32.08.18-.06.34-.05.59.28-.57.57-1.13,1.39-1.35,0,.13.16.23-.06.33,1.27-.68,1.74-2.01,3.32-2.37-.03.98.61.02,1.02.65l.66-.58-.47-.17c.67-.31,1.01-1.1,1.69-1.17l-.35.53,1.18-.76-.83.11c.49-.68-.5-.81.47-1.07-.14.16.66-.33,1.21-.11h0c.22-.38.44-.77,1.01-.85.24.15.28.79.43.88.04-.71,1.46-.96,1.56-1.76-.06.21.11.56.19.61l.03-.59c.38-.02.46.03.56.33.96-.4-.73-.68.54-.9-.07.08.01.13-.13.29,1.19-.39,1.96-1.39,3.06-1.72.65.5-.78.64-.14,1.01,1.37-.91,2.54-2.42,4-3.04l-.3.07c-.33-1.03,1.28-.13,1.73-.96-.13.17.07.64.06.51,1.02-.4,1.8-1.32,3.04-2.45l-.04.34c.67-.12,1.51-.75,2.17-1,.03-.34.4-.5-.02-.72,2.65.24,3-2.84,5.29-2.76-.19.12-.33.49-.17.39l1.22-1.08c-.36-.32-.33-.12-.81-.24.02-.34.29-.76.62-.98-.43.66.41.62.81.66-.12-.09-.12-.28-.22-.38,1.15.22-.4-.85.86-1.03l.08.24c.29-.34.43-.83.85-1.03.46.34-.24.46-.02.84.52-.39.49-1.55,1.28-1.44-.14.28-.47.5-.62.78.89.16.86-.01,1.31-.2h-.05c.36-.11.71-.25,1.07-.39l-.33.02c-.14-1.62,1.2-1.18,1.56-2.56-.36,1.32.15.51.44,1.05.33-.03.78-.12.79.09.13-.7.94-.2,1.11-1.2.14.14.45-.32.65.14.45-.54-.33-.17-.43-.41.42-1.16,2.44-.85,3.07-2.48.8-1.07.56-1.76,1.27-2.76.51-.01.19.76.19.76.68-.19,1.03-.54,1.36-1.1.01.21.2.24.49.29.35-.35-.2-.75.49-.95.05.24.17.59.12.91.33-.51.56-1.14.89-1.68.34.15.07.64.04.94.42-.56,1.12-1.4.92-1.94l-.45.14c.17-.18.4.26.33.46-.16.7-.75.41-.9.28l.24-.38c-1.06-.57-1.18,1.26-1.9,1.75l-.26-.87-.24,1.09c-.28-.05-.68-.33-.43-.69-.73.07-.23.57-.93.55-.09-.02-.09-.07-.07-.13l-.31.57c-.02-.21-.45-.39-.09-.53-1.13.3-.94,1.59-1.66,1.34l.04-.09c-1.01,1.13.26.57-.19,1.81l-1.52-.73.26.57c-.14.08-.4.22-.51,0-.2.68.24.15.21.67-.93,0-1.46,1.46-2.18.77.06.53.79-.13.34.6-.8-.71-.64.68-1.47.68-.15-.56.54-.7-.29-.7.2.98-1.18.6-1.54,1.07.39.6-.82.98-1.48,1.71-.09-.23-1.72.68-2.6.95l-.05-.12c.27.71-.57,1.1-1.04,1.6-.22-.38-.21-.59-.02-.96l-.52.35c0,.28-.09.49-.39.77l-.17-.54c-.68.47-1.07,1.45-2.17,1.71.22.47,1.49.74.7,1.65-.18-.21-.47-.59-.28-.85-.06.08-.17.38-.4.39l.14-.64c-.52.09,0,.47-.36.64-.2-.34-.39-.08-.51-.38.06-.09.37-.05.42-.26-.41.18-.98.26-1.29.1.15.17.28.45.03.66-.7.46-.49-.26-1.02-.18-.03.34-.63.37-.34.88-.21.12-.39-.09-.56-.18-.23.45-1.69,1.11-.95,1.39l.12-.02s-.03.03-.05.06h0s0,0,0,0c-.91,1.25-2.71,1.2-3.8,2.13l-.1-.17c-.62.61-1.55,1.05-1.87,1.71-.22.12-.69-.03-.71-.29-.49.44-.45.67-1.42.83.4-.61-.34-.16.46-.54-.81.25-1.13.07-1.65.97.02-.59-.85-.26-1.13.07l.68.04c-.36.28-.72.43-1.09.58l-.13-.69c-1.88.08-2.07,2.65-3.85,2.06-.18.62.97-.14.87.53-.74.29-1.9-.18-2.12-.07-1.12.16-.45,1.32-1.57,1.61.24.15.65.65,0,1.23-.74.28-1.31-.45-.96-.84.16-.1.27-.08.3,0,.19-.19.44-.43.04-.52l.02.26c-.46-.04-1.41.47-1.36.01-.43.47-.05.46.4.37-1.05.15-1.41.7-2.44.95.21.04.47.23.32.3-1.49.41-.4.7-1.28,1.25-.69-.06-.19-.87-.99-.14-.68.06-.4-.51-.26-.79-.64.83-1.71.51-2.24.67l.36-.39c-.22.23-.44.33-.66.44l.46.3c-.3.05-.52.16-.6-.02-.14.41.55.61.2,1.25-.46-.05-.96.75-1.35.24,1.2-.34-.4-.51.49-1.05-.15.15-.37.26-.67.31-.07-.04-.02-.14.04-.2-1.3,0-.18.88-1.28,1.39-.01-.39-.54-.48-.69-.33.44-.21.47.43.18.87-.82.09-.68.55-1.06.7l.48-.08c0,.39-.36.51-.81.85-.16-.23.37-.38.14-.41-.28.82-1.51,0-2.09.74-.46-.05-.32-.59-.7-.59-.66.82-1.13,0-1.87.76.46.31.46.18.02.9l1.34-1-.65,1.07c.45-.2.82-.71,1.12-.77-.29.57-.29.44.09.69-.92-.36-1.03.95-1.95.84l-.48-1.08c-1.28.02-1.63,1.43-3.13,1.81l.53-.02c.01.51-.83.46-1.19.84-.13-.38-.47-.38-.76-.51.15.25-1.02.45-.82,1.22l-.84-.18c-1.21.33-.8,1.61-1.93,1.99.14-.54-.46-.57.13-1.18-.36.16-.71.25-.6.5-.31-.13-.77.94-1.26.76-.08.23.05.63-.37.78-.08-.05-.08-.18-.08-.18.08.18-.52.53.02.77-1.62-.61-3.05,1.5-4.45.98-.73.47-1.62,1.02-2.32,1.36,0-.13-.08-.18.07-.2-1.13.1-.14,1.31-1.43,1.43-.83-.33.46-.58,0-.64-.68-1.12-1.28.76-2.34.39l.15-.15c-.75-.16-1.21,1.06-2.19,1.38,0,0,0-.13-.07-.18-.39.88-1.53,1.6-2.38,2.15.09-.59.31-.42-.06-.83-.38.24.44.72-.33,1.19-.37-.15-1.06-.14-1.34-.62l.76-.34c-.66-.5-.99.42-1.44.47l-.06-.31c-1.14.57-.88,1.3-2.18,1.74l.22.17c-.43.99-.74-.19-1.24.62l-.49-.66c-.39.36-1.36,1.31-2.15,1.75.28-.72,1.15-1.35,1.63-1.9-.46.17-1.54.62-1.65,1.07.16-.14.33-.4.55-.36-.35.79-1,1.34-1.93,1.64-.33-1.5-2.54.45-3.57-.48-1.47,1.05-3.31.76-5.19,1.33.98.98-.55.18-.13,1.33-.43.19-.61.21-.67.14-.51-.12-1.03-.26-1.53-.39-.4-.27.37-.36.26-.62-1,.13-.52-.41-1.23-.59.22.4-.21.68-.8.63l.9.39c-1.25.92-1.38-.76-2.64.12l.37-.46c-.67.37-2.59.41-3.17,1.47-.14-.12-.35-.43-.05-.56-1.69.07-3.72,1.39-5.08.81l.12-.3c-.31.09-.55.57-.95.28.02-.12.13-.3-.02-.32-.16.11-.85.51-1.26.33l.37-.33c-.82-.2-1.45-.05-2.07.2-.57.24-1.15.53-1.82.51.14-.86-.88-1.38-1.25-1.7l.06-.11c-.64-.3-1.09-.4-1.55-.5-.45-.1-.88-.28-1.17-.78.43-.39.53-.8.83-1.57.29-.74.78-1.7,1.45-2.48-.27.2-.6-.34-.53-.69.36-.33-.03-1.38.68-.98l-.08.14c.87.02,1.06-.92,1.37-1.58l-.92-.53c2.18-1.15,1.31-4.79,2.92-5.3-.1-.52.09-1.06-.03-1.57l.53.2c.53-1.17.79-1.76,1.09-3.31l.3.42c.14-.42-.18-.81-.51-1.18-.17-.19-.33-.37-.45-.55-.11-.21-.16-.48-.1-.74.31-.07.62-.17.94-.28.28-1.06.65-2.18,1.01-3.36.34-1.16.64-2.39.62-3.29-.24,0-.48.02-.72.04.14-.11.43-.33.75-.31-.1-.03-.21-.06-.34-.11-.16-.03-.37-.05-.58-.08-.43-.06-.87-.11-1.3-.12-.86-.03-1.59.13-1.72.73.21-.4-.36-.41-1.13-.2-.78.23-1.7.7-2.26,1.09.05-.21.11-.43.18-.64-.54.53-.74.87-1,1.15-.24.26-.57.52-1.06.86-.24.04-.39-.3-.03-.32-.86.11-.32.75-1.3.94l.14-.48c-.73.36-.58.5-.75,1.07-.32.44-1.35.65-1.71.28.07.32-.08.89-.54,1.01-.15-.13-.07-.32-.03-.41-1.31.36-1.3,1.57-2.35,1.58-.11-.15-.21-.19-.31-.2.88-.54,1.61-.96,1.56-.88-.27-.44-1.03-.07-.84-1.02-.37.68-.89,2.01-1.71,2.24-.06-.02-.12-.04-.19-.09l.04-.09c-.19.06-.3.19-.39.35-.26.07-.44.11-.65.23-.31-.31-.93.33-1.3.53.33.45-.18.67.51.79-.08,0,.03-.1.25-.27.04-.05.1-.09.12-.14,0,.02,0,.04,0,.06.23-.16.52-.36.85-.59-.12.42-.28.81-.84.79.01.42.02.86,0,1.08-.9-.36-2.06-.11-2.45-.43-.9.96-2.4,1.82-2.48,3.14-.23.31-.51-.02-.72-.09.12-.2.33-.33.34-.52-.46.62-1.72,1.28-1.46,1.99-.94.23.05-.85-.93-.05v-.28c-2.7.41-2.23,3.81-5.33,4.12.21-.03.31-.05.41.03-2.94,1.24-4.86,4.22-7.96,5.19-.83.35-.63.78-.84,1.39l-.51-.37-.31,1.11c-.73,1.18-2.68.16-3.4,1.92l.41.2c-.52.29-1.33,1.32-1.54.89,0,.1.11.45-.21.43l-.21-.24-.81,1.31c-1.02.51-.63-1.1-1.96-.14-.4.47-.79,1.79-.48,1.82.2-.14.61-.23.82,0l-.33.47c.5.79.76,1.8,2.22,1.48l.39-1.03.52.17-.61.51c.62.06.61-.41.7-.81.21.14.41.19.62.15l.19-1.27c.31.22.11.82.73.6.09-.59-.83-.39-.43-1.05.62.06.72.41.92-.2.2.14.21.33.11.55.2-.52.91-.85.81-1.39.69.13,1.18-1.07,1.68-.34-.01-.26.24-1.05.57-1.34,0,1.32,1.33-.92,1.84.11-.1-1.11,1.44-1.59,1.96-2.63,0,.1,0,.29-.11.3.51-.28.82-.15,1.23-.23-.4-.68.23-1.36.34-2.03,1.02.19.19,1,.8,1.46-.4-.49.63-1.24.13-1.53.72.06.52-.09,1.12.27-.49-.85.32-.43.33-1.18.92-.07.7.63,1.23-.12.51,0,.08.74.08.74ZM34.17,36.95s0,0,0,0c-.14.11-.27.2-.34.25.07-.05.17-.13.34-.26ZM35.64,36.02c-.19.09-.42.23-.65.38-.15-.13-.21-.34-.05-.42-.01.16.4.04.7.04ZM30.43,34.7c.19-.22.33-.17.42-.1-.11.08-.22.18-.37.32,0,.02,0,.05,0,.08-.04-.1-.06-.21-.06-.3Z"/>
        <path class="cls-1" d="M30.41,35.59s-.03.06-.07.1c.07.01.14.02.21.02,0-.07,0-.14-.01-.2-.04.03-.08.06-.12.09Z"/>
        <path class="cls-1" d="M142.84,20.44h-.04s.07.02.11.04c-.03-.01-.04-.03-.07-.04Z"/>
        <polygon class="cls-1" points="40.89 40.24 41.02 40.28 40.96 40.1 40.89 40.24"/>
        <path class="cls-1" d="M152.02,16.97s.1.05.18.05c-.02-.03-.1-.04-.18-.05Z"/>
        <path class="cls-1" d="M155.55,14.74l.6-.17c-.27.06-.46.12-.6.17Z"/>
        <path class="cls-1" d="M158.33,13.1c-.02-.1-.06-.17-.09-.23h0s.1.23.1.23Z"/>
        <path class="cls-1" d="M114.28,38.8s-.07.05-.1.08c-.21.22-.06.1.1-.08Z"/>
        <path class="cls-1" d="M127.28,30.93c-.1.16-.19.32-.31.46.26-.08.45-.17.31-.46Z"/>
        <path class="cls-1" d="M99.27,46.58s0,0,0,0l-.09.04.1-.03Z"/>
        <path class="cls-1" d="M126.34,31.7c.29-.02.48-.15.63-.31-.21.07-.47.13-.63.31Z"/>
        <path class="cls-1" d="M169.47,4.65l.13-.09s-.04-.06-.05-.08l-.09.17Z"/>
        <path class="cls-1" d="M169.56,4.49l.09-.16c-.06.05-.11.1-.09.16Z"/>
        <path class="cls-1" d="M169.82,3.97l-.18.35c.1-.08.22-.17.18-.35Z"/>
        <path class="cls-1" d="M166.03,7.2l.09.19s-.03-.11-.09-.19Z"/>
        <path class="cls-1" d="M165.06,8.07c.27-.16.87-.15,1.13-.53l-.07-.15c.03.36-1.05.23-1.06.68Z"/>
        <path class="cls-1" d="M159.27,9.36l.95-.52c-.28-.06-.65-.14-.3-.48-1.46.3.51.22-.65,1Z"/>
        <path class="cls-1" d="M156.41,11.06c.41-.42-.19-.25-.24-.37-.18.37-.22.46.24.37Z"/>
        <path class="cls-1" d="M136.12,23.8l-.2-.47c-.35.28.09.18.2.47Z"/>
        <polygon class="cls-1" points="133.35 28.33 133.89 28.41 133.84 27.9 133.35 28.33"/>
        <polygon class="cls-1" points="129.23 26.38 129.37 26.23 128.81 26.74 129.23 26.38"/>
        <path class="cls-1" d="M92.94,44.05l.38.52c.23-.23-.01-.9-.38-.52Z"/>
        <path class="cls-1" d="M77.21,51.45c-.29-.22-.82-.25-.99.15.38-.1.83,0,.99-.15Z"/>
        <polygon class="cls-1" points="43.94 46.37 44 46.79 44.1 46.09 43.94 46.37"/>
      </g>
    </g>
  </g>
</svg>