<svg xmlns="http://www.w3.org/2000/svg" id="Layer_2" data-name="Layer 2" viewBox="0 0 200.48 200.48"><defs><style>.cls-1{fill:#685807}.cls-2{stroke:#000;stroke-linecap:round;stroke-linejoin:round;fill:none}.cls-5{opacity:.15}</style></defs><g id="Lion"><g id="outline"><path d="M200.11 100.24c0 8.13-18.92 13.66-20.92 21.16-2.07 7.76 11.48 22 7.55 28.79-3.99 6.89-23.13 2.24-28.72 7.83s-.94 24.73-7.83 28.72-21.03-9.63-28.79-7.55c-7.5 2-13.03 20.92-21.16 20.92s-13.66-18.92-21.16-20.92-22 11.48-28.79 7.55c-6.89-3.99-2.24-23.13-7.83-28.72s-24.73-.94-28.72-7.83 9.63-21.03 7.55-28.79c-2-7.5-20.92-13.03-20.92-21.16s18.92-13.66 20.92-21.16-11.48-22-7.55-28.79 23.13-2.24 28.72-7.83.94-24.73 7.83-28.72 21.03 9.63 28.79 7.55S92.11.38 100.24.38 113.9 19.3 121.4 21.3s22-11.48 28.79-7.55c6.89 3.99 2.24 23.13 7.83 28.72s24.73.94 28.72 7.83-9.63 21.03-7.55 28.79c2 7.5 20.92 13.03 20.92 21.16Z" style="fill:#ececf1"/><path d="M200.11 100.24c0 8.13-18.92 13.66-20.92 21.16-2.07 7.76 11.48 22 7.55 28.79-3.99 6.89-23.13 2.24-28.72 7.83s-.94 24.73-7.83 28.72-21.03-9.63-28.79-7.55c-7.5 2-13.03 20.92-21.16 20.92s-13.66-18.92-21.16-20.92-22 11.48-28.79 7.55c-6.89-3.99-2.24-23.13-7.83-28.72s-24.73-.94-28.72-7.83 9.63-21.03 7.55-28.79c-2-7.5-20.92-13.03-20.92-21.16s18.92-13.66 20.92-21.16-11.48-22-7.55-28.79 23.13-2.24 28.72-7.83.94-24.73 7.83-28.72 21.03 9.63 28.79 7.55S92.11.38 100.24.38 113.9 19.3 121.4 21.3s22-11.48 28.79-7.55c6.89 3.99 2.24 23.13 7.83 28.72s24.73.94 28.72 7.83-9.63 21.03-7.55 28.79c2 7.5 20.92 13.03 20.92 21.16Z" style="fill:none;stroke:#ececf1;stroke-miterlimit:10;stroke-width:.75px"/></g><g class="cls-5"><path d="M186.98 101.24c0 7.22-16.81 12.14-18.59 18.8s10.2 19.54 6.71 25.58-20.55 1.99-25.52 6.96-.84 21.98-6.96 25.52-18.69-8.55-25.58-6.71c-6.66 1.78-11.58 18.59-18.8 18.59s-12.14-16.81-18.8-18.59-19.54 10.2-25.58 6.71c-6.12-3.54-1.99-20.55-6.96-25.52s-21.98-.84-25.52-6.96 8.55-18.69 6.71-25.58S9.5 108.46 9.5 101.24s16.81-12.14 18.59-18.8-10.2-19.54-6.71-25.58 20.55-1.99 25.52-6.96.84-21.98 6.96-25.52 18.69 8.55 25.58 6.71S91.02 12.5 98.24 12.5s12.14 16.81 18.8 18.59 19.54-10.2 25.58-6.71 1.99 20.55 6.96 25.52 21.98.84 25.52 6.96-8.55 18.69-6.71 25.58 18.59 11.58 18.59 18.8" class="cls-1"/></g><g class="cls-5"><path d="M189.98 101.24c0 7.22-16.81 12.14-18.59 18.8s10.2 19.54 6.71 25.58-20.55 1.99-25.52 6.96-.84 21.98-6.96 25.52-18.69-8.55-25.58-6.71c-6.66 1.78-11.58 18.59-18.8 18.59s-12.14-16.81-18.8-18.59-19.54 10.2-25.58 6.71-1.99-20.55-6.96-25.52-21.98-.84-25.52-6.96 8.55-18.69 6.71-25.58-18.59-11.58-18.59-18.8 16.81-12.14 18.59-18.8-10.2-19.54-6.71-25.58c3.54-6.12 20.55-1.99 25.52-6.96s.84-21.98 6.96-25.52 18.69 8.55 25.58 6.71 11.58-18.59 18.8-18.59 12.14 16.81 18.8 18.59 19.54-10.2 25.58-6.71 1.99 20.55 6.96 25.52 21.98.84 25.52 6.96-8.55 18.69-6.71 25.58 18.59 11.58 18.59 18.8" class="cls-1"/></g><path d="M188.98 100.24c0 7.22-16.81 12.14-18.59 18.8s10.2 19.54 6.71 25.58-20.55 1.99-25.52 6.96-.84 21.98-6.96 25.52-18.69-8.55-25.58-6.71c-6.66 1.78-11.58 18.59-18.8 18.59s-12.14-16.81-18.8-18.59-19.54 10.2-25.58 6.71c-6.12-3.54-1.99-20.55-6.96-25.52s-21.98-.84-25.52-6.96 8.55-18.69 6.71-25.58c-1.78-6.66-18.59-11.58-18.59-18.8s16.81-12.14 18.59-18.8-10.2-19.54-6.71-25.58 20.55-1.99 25.52-6.96.84-21.98 6.96-25.52 18.69 8.55 25.58 6.71 11.58-18.59 18.8-18.59 12.14 16.81 18.8 18.59 19.54-10.2 25.58-6.71 1.99 20.55 6.96 25.52 21.98.84 25.52 6.96-8.55 18.69-6.71 25.58 18.59 11.58 18.59 18.8" style="fill:#fddb00"/><circle cx="82.79" cy="79.14" r="3.59"/><circle cx="116.34" cy="78.67" r="3.59"/><path d="m103.32 104.82 3.23-5.6c1.37-2.37-.34-5.34-3.08-5.34h-6.46c-2.74 0-4.45 2.97-3.08 5.34l3.23 5.6c1.37 2.37 4.79 2.37 6.16 0"/><path d="M100.24 116.13V105.4M100.24 118.14c0 4.68-3.79 8.47-8.47 8.47s-8.47-3.79-8.47-8.47M117.18 118.14c0 4.68-3.79 8.47-8.47 8.47s-8.47-3.79-8.47-8.47v-4.7" class="cls-2"/></g></svg>